# xmcd
#
# Track frame offsets:
#	150
#	14237
#	27848
#	42028
#	63490
#	76433
#	91775
#	104002
#	121276
#	137434
#	150227
#
# Disc length: 2262 seconds
# Revision: 0
# Processed by: cddbd v1.5.2PL0 Copyright (c) Steve Scherf et al.
# Submitted via: dBpowerAMP V12.0
#
DISCID=8308d40b
DTITLE=Jackstraw - Sunday Never Comes
DYEAR=2011
DGENRE=Country
TTITLE0=Come On Back to Me
TTITLE1=Sunny Brae
TTITLE2=Poor Man
TTITLE3=Dark and Empty
TTITLE4=Just Another Way to Go
TTITLE5=Randy the Rambler
TTITLE6=May the Twain Ne'er Meet
TTITLE7=Hurts When I See You
TTITLE8=Sunday Never Comes
TTITLE9=If I Die
TTITLE10=Pearly Mae
EXTD=
EXTT0=
EXTT1=
EXTT2=
EXTT3=
EXTT4=
EXTT5=
EXTT6=
EXTT7=
EXTT8=
EXTT9=
EXTT10=
PLAYORDER=
